<?xml version="1.0" encoding="UTF-8"?>
<svg id="Layer_2" data-name="Layer 2" xmlns="http://www.w3.org/2000/svg" viewBox="0 0 280.75 91.66">
  <defs>
    <style>
      .cls-1 {
        fill: #a9a9a9;
      }

      .cls-2 {
        fill: #fb181d;
      }

      .cls-3 {
        fill: #7d7d7d;
      }

      .cls-4 {
        fill: #041840;
      }
    </style>
  </defs>
  <g id="Layer_1-2" data-name="Layer 1">
    <g>
      <g>
        <g>
          <g>
            <path class="cls-4" d="M104.88,35.83L91.19,0h7.84l9.9,27.43L118.9,0h7.84l-13.63,35.83h-8.23Z"/>
            <path class="cls-4" d="M128.6,35.83V0h25.7v5.84h-18.19v9.18h16.13v5.79h-16.13v9.24h18.19v5.79h-25.7Z"/>
            <path class="cls-4" d="M157.56,35.83V0h17.19c4.12,0,7.14,1.08,9.07,3.25,1.93,2.17,2.89,5.09,2.89,8.76,0,2.41-.62,4.49-1.86,6.23-1.24,1.74-3,3-5.26,3.78.59.48,1.07,1,1.42,1.56.35.56.71,1.3,1.08,2.23l4.34,10.01h-7.79l-4.23-9.62c-.37-.82-.78-1.39-1.22-1.72-.45-.33-1.19-.5-2.23-.5h-5.9v11.85h-7.51ZM165.07,17.75h7.73c1.97,0,3.51-.44,4.62-1.31,1.11-.87,1.67-2.35,1.67-4.42s-.48-3.47-1.45-4.4c-.96-.93-2.43-1.39-4.4-1.39h-8.18v11.52Z"/>
            <path class="cls-4" d="M198.75,35.83V5.79h-11.02V0h29.49v5.79h-10.96v30.04h-7.51Z"/>
            <path class="cls-4" d="M219.36,35.83V0h25.7v5.84h-18.19v9.18h16.13v5.79h-16.13v9.24h18.19v5.79h-25.7Z"/>
            <path class="cls-4" d="M245.81,35.83l12.96-17.97L246.14,0h8.85l8.29,11.96,8.29-11.96h8.85l-12.63,17.86,12.96,17.97h-8.96l-8.51-11.96-8.51,11.96h-8.96Z"/>
          </g>
          <g>
            <path class="cls-3" d="M94.75,59.78v-14.02h1.79v12.63h7.47v1.39h-9.26Z"/>
            <path class="cls-3" d="M135.08,60c-2.19,0-3.82-.58-4.88-1.73-1.06-1.15-1.59-2.99-1.59-5.5s.53-4.34,1.59-5.5c1.06-1.15,2.69-1.73,4.88-1.73s3.84.58,4.89,1.73c1.05,1.15,1.58,2.99,1.58,5.5s-.53,4.34-1.58,5.5c-1.05,1.15-2.68,1.73-4.89,1.73ZM135.08,58.48c1.06,0,1.93-.18,2.62-.54.69-.36,1.2-.96,1.55-1.8.34-.84.51-1.96.51-3.36s-.17-2.53-.51-3.36c-.34-.83-.86-1.43-1.55-1.8-.69-.36-1.57-.54-2.62-.54s-1.93.18-2.62.54c-.69.36-1.21.96-1.55,1.8-.34.84-.51,1.96-.51,3.36s.17,2.53.51,3.36c.34.83.86,1.43,1.55,1.8.69.36,1.56.54,2.62.54Z"/>
            <path class="cls-3" d="M174.41,60c-1.51,0-2.76-.29-3.76-.86-.99-.57-1.74-1.38-2.23-2.42-.49-1.04-.74-2.25-.74-3.65,0-1.52.23-2.85.7-3.98.46-1.13,1.19-2.01,2.18-2.62.99-.62,2.26-.93,3.83-.93.81,0,1.55.06,2.21.17.66.12,1.28.28,1.86.48v1.57c-.58-.22-1.2-.39-1.85-.51-.65-.12-1.34-.18-2.07-.18-1.26,0-2.26.24-3.01.72s-1.27,1.17-1.59,2.07c-.32.9-.48,1.97-.48,3.22,0,1.73.4,3.06,1.2,4,.8.94,2.08,1.4,3.85,1.4.62,0,1.23-.05,1.81-.15s1.1-.24,1.55-.41v-4.47h-3.75v-1.22h5.29v6.66c-.42.28-1.03.53-1.84.76-.81.23-1.86.35-3.17.35Z"/>
            <path class="cls-3" d="M205.99,59.78v-14.02h1.79v14.02h-1.79Z"/>
            <path class="cls-3" d="M241.07,60c-1.51,0-2.76-.29-3.76-.86-.99-.57-1.74-1.38-2.23-2.42-.49-1.04-.74-2.25-.74-3.65,0-1.52.23-2.85.7-3.98.46-1.13,1.19-2.01,2.18-2.62.99-.62,2.26-.93,3.83-.93.81,0,1.55.06,2.21.17.66.12,1.28.28,1.86.48v1.57c-.58-.22-1.2-.39-1.85-.51-.65-.12-1.34-.18-2.07-.18-1.26,0-2.26.24-3.01.72s-1.27,1.17-1.59,2.07c-.32.9-.48,1.97-.48,3.22,0,1.73.41,3.06,1.23,4,.82.94,2.12,1.4,3.89,1.4.65,0,1.32-.05,1.99-.15s1.3-.26,1.88-.48v1.59c-.57.17-1.18.31-1.84.41-.66.1-1.4.15-2.21.15Z"/>
            <path class="cls-3" d="M275.37,60c-1.74,0-3.15-.22-4.23-.65v-1.59c.61.23,1.26.41,1.95.53.69.12,1.4.18,2.12.18,1.25,0,2.18-.17,2.81-.51s.94-.95.94-1.84c0-.55-.13-.99-.38-1.32-.25-.33-.67-.6-1.25-.83-.58-.22-1.36-.45-2.33-.69-1.54-.38-2.62-.87-3.25-1.47s-.94-1.41-.94-2.43c0-1.19.43-2.13,1.29-2.82.86-.69,2.16-1.03,3.92-1.03.81,0,1.57.06,2.26.17.7.12,1.23.24,1.61.37v1.57c-.52-.19-1.09-.33-1.7-.44-.61-.1-1.24-.15-1.89-.15-1.19,0-2.1.17-2.74.52-.64.35-.96.95-.96,1.81,0,.48.11.87.34,1.16.23.3.61.55,1.14.76.54.21,1.28.43,2.24.66,1.15.28,2.04.61,2.68.99s1.09.84,1.35,1.36c.26.52.39,1.12.39,1.79,0,1.23-.45,2.19-1.35,2.86-.9.67-2.24,1.01-4.03,1.01Z"/>
          </g>
        </g>
        <g>
          <polygon class="cls-4" points="57.76 0 34.64 40.05 17.28 9.98 31.79 9.98 31.79 0 0 0 5.76 9.98 28.88 50.02 34.64 60 40.4 50.02 69.28 0 57.76 0"/>
          <polygon class="cls-2" points="34.67 0 23.2 0 23.16 .02 34.66 19.94 40.43 9.97 34.67 0"/>
          <polygon class="cls-2" points="57.71 59.86 69.23 59.86 57.7 39.89 51.95 49.89 57.71 59.86"/>
        </g>
        <rect class="cls-1" x="79.51" width="1.5" height="60"/>
      </g>
      <rect class="cls-1" x="8.84" y="83.57" width="25" height="1.5"/>
      <rect class="cls-1" x="246.37" y="83.57" width="25" height="1.5"/>
      <g>
        <path class="cls-3" d="M48.78,88.65l-2.78-10.19h1.31l1.62,6.28c.09.33.17.66.25,1s.15.69.23,1.03.14.7.21,1.07h-.15c.07-.36.14-.72.21-1.07s.15-.69.23-1.03.17-.68.25-1l1.65-6.28h1.46l1.64,6.28c.09.33.18.66.26,1s.16.69.24,1.03.15.7.22,1.07h-.18c.07-.36.14-.72.21-1.07s.15-.69.23-1.03.16-.68.25-1l1.61-6.28h1.33l-2.79,10.19h-1.5l-1.76-6.48c-.11-.42-.22-.88-.33-1.37s-.21-1.03-.31-1.63h.27c-.1.57-.2,1.1-.3,1.58-.1.48-.21.95-.34,1.43l-1.75,6.48h-1.5Z"/>
        <path class="cls-3" d="M61.7,84.15v4.5h-1.22v-10.19h1.22v4.46h-.25c.23-.69.56-1.19.99-1.49.43-.3.93-.45,1.51-.45.51,0,.96.11,1.35.32.39.21.7.53.92.96.22.43.33.96.33,1.61v4.77h-1.22v-4.68c0-.59-.15-1.05-.46-1.38-.31-.33-.72-.5-1.26-.5-.36,0-.69.08-.98.23s-.52.38-.69.69-.25.68-.25,1.13Z"/>
        <path class="cls-3" d="M71.86,88.81c-.73,0-1.36-.16-1.89-.49s-.93-.78-1.22-1.37-.42-1.26-.42-2.03.14-1.45.42-2.04.68-1.05,1.19-1.39,1.11-.5,1.79-.5c.43,0,.84.07,1.24.21.4.14.75.37,1.07.68.31.31.56.7.75,1.19s.27,1.06.27,1.73v.47h-5.93v-1.03h5.27l-.55.37c0-.5-.08-.94-.24-1.32s-.4-.68-.71-.9c-.31-.22-.7-.32-1.15-.32s-.84.11-1.17.33-.58.51-.75.87c-.17.36-.26.76-.26,1.19v.64c0,.55.09,1.02.28,1.42s.46.69.81.9.76.31,1.22.31c.31,0,.59-.05.84-.14s.46-.23.64-.4.31-.4.4-.66l1.18.26c-.11.4-.31.75-.59,1.05s-.63.54-1.06.71c-.42.17-.89.26-1.42.26Z"/>
        <path class="cls-3" d="M76.79,88.65v-7.55h1.17v1.16h.07c.14-.38.39-.69.73-.92s.75-.35,1.2-.35c.1,0,.2,0,.32,0s.21,0,.27.01v1.22s-.13-.02-.27-.04-.3-.03-.46-.03c-.34,0-.65.07-.93.22s-.49.35-.65.62-.24.58-.24.94v4.71h-1.22Z"/>
        <path class="cls-3" d="M84.9,88.81c-.73,0-1.36-.16-1.89-.49s-.93-.78-1.22-1.37-.42-1.26-.42-2.03.14-1.45.42-2.04.68-1.05,1.19-1.39,1.11-.5,1.79-.5c.43,0,.84.07,1.24.21.4.14.75.37,1.07.68.31.31.56.7.75,1.19s.27,1.06.27,1.73v.47h-5.93v-1.03h5.27l-.55.37c0-.5-.08-.94-.24-1.32s-.4-.68-.71-.9c-.31-.22-.7-.32-1.15-.32s-.84.11-1.17.33-.58.51-.75.87c-.17.36-.26.76-.26,1.19v.64c0,.55.09,1.02.28,1.42s.46.69.81.9.76.31,1.22.31c.31,0,.59-.05.84-.14s.46-.23.64-.4.31-.4.4-.66l1.18.26c-.11.4-.31.75-.59,1.05s-.63.54-1.06.71c-.42.17-.89.26-1.42.26Z"/>
        <path class="cls-3" d="M94.96,78.46v10.19h-1.22v-10.19h1.22Z"/>
        <path class="cls-3" d="M100.18,88.81c-.69,0-1.29-.16-1.81-.49-.52-.33-.92-.78-1.21-1.37s-.43-1.27-.43-2.04.14-1.47.43-2.06c.29-.59.69-1.05,1.21-1.38.52-.33,1.12-.49,1.81-.49s1.29.16,1.81.49c.52.33.92.78,1.21,1.38.29.59.43,1.28.43,2.06s-.14,1.45-.43,2.04-.69,1.04-1.21,1.37c-.52.33-1.12.49-1.81.49ZM100.18,87.73c.5,0,.92-.13,1.25-.38s.58-.6.74-1.02c.16-.43.24-.89.24-1.4s-.08-.99-.24-1.42c-.16-.43-.41-.78-.74-1.03-.33-.26-.75-.39-1.25-.39s-.91.13-1.24.39c-.33.26-.57.6-.74,1.03s-.25.9-.25,1.42.08.98.25,1.4c.16.43.41.77.73,1.02s.74.38,1.24.38Z"/>
        <path class="cls-3" d="M108.48,91.66c-.56,0-1.04-.07-1.46-.22-.42-.15-.77-.35-1.04-.61-.27-.26-.48-.55-.62-.87l1.04-.5c.1.17.23.35.4.52.16.17.38.32.65.44.27.12.61.17,1.03.17.62,0,1.12-.15,1.5-.45s.58-.76.58-1.39v-1.44h-.09c-.11.17-.25.36-.42.56-.17.2-.41.37-.7.5s-.66.21-1.11.21c-.62,0-1.16-.15-1.65-.44-.48-.29-.86-.72-1.14-1.28-.28-.56-.42-1.23-.42-2.01s.14-1.46.41-2.03c.27-.58.65-1.02,1.14-1.34s1.04-.48,1.68-.48c.45,0,.82.07,1.11.22s.53.32.7.53.32.39.42.57h.09v-1.2h1.18v7.7c0,.67-.15,1.21-.44,1.63-.29.42-.69.73-1.19.93s-1.05.29-1.66.29ZM108.44,87.5c.46,0,.85-.11,1.17-.32s.56-.52.73-.92.25-.88.25-1.43-.08-1.02-.25-1.43c-.16-.41-.41-.73-.73-.97s-.71-.35-1.18-.35-.87.12-1.19.36c-.32.24-.57.57-.73.98-.17.41-.25.88-.25,1.41s.08,1.01.25,1.41.41.71.74.93c.32.22.72.33,1.18.33Z"/>
        <path class="cls-3" d="M114.52,79.82c-.23,0-.42-.08-.59-.24s-.25-.35-.25-.57.08-.41.25-.57c.17-.16.36-.24.59-.24s.43.08.6.24c.17.16.25.35.25.57s-.08.42-.25.57-.37.24-.6.24ZM113.91,88.65v-7.55h1.22v7.55h-1.22Z"/>
        <path class="cls-3" d="M120.35,88.81c-.69,0-1.29-.16-1.81-.49-.52-.33-.92-.78-1.21-1.37s-.43-1.27-.43-2.04.14-1.47.43-2.06c.29-.59.69-1.05,1.21-1.38.52-.33,1.12-.49,1.81-.49.38,0,.73.05,1.07.15s.63.25.9.44.5.42.69.69c.19.27.33.58.42.92l-1.18.26c-.05-.2-.13-.38-.24-.55-.11-.17-.25-.31-.41-.43s-.34-.22-.55-.29-.44-.1-.7-.1c-.5,0-.91.13-1.24.39-.33.26-.57.6-.74,1.03s-.25.9-.25,1.42.08.98.25,1.4c.16.43.41.77.73,1.02s.74.38,1.24.38c.26,0,.49-.03.7-.1s.4-.17.56-.29.3-.28.41-.45c.11-.18.19-.37.25-.57l1.18.26c-.09.35-.23.66-.42.93s-.42.51-.69.71c-.27.2-.58.35-.91.45s-.69.16-1.07.16Z"/>
        <path class="cls-3" d="M132.61,88.81c-.44,0-.81-.07-1.1-.22-.29-.15-.53-.33-.71-.53s-.32-.39-.42-.57h-.11v1.16h-1.18v-10.19h1.22v3.83h.08c.1-.17.24-.35.41-.55s.4-.38.69-.52c.29-.15.66-.22,1.12-.22.64,0,1.2.16,1.68.48s.86.77,1.13,1.35.41,1.27.41,2.06-.14,1.49-.41,2.07c-.27.59-.65,1.04-1.13,1.36-.48.32-1.04.48-1.68.48ZM132.43,87.72c.46,0,.86-.12,1.18-.37s.56-.58.73-1.01.25-.91.25-1.46-.08-1.02-.25-1.45c-.16-.42-.41-.75-.73-.99s-.72-.36-1.19-.36-.86.12-1.18.35c-.32.23-.56.56-.73.98s-.25.91-.25,1.47.08,1.05.25,1.48c.17.43.41.76.73,1,.32.24.71.36,1.17.36Z"/>
        <path class="cls-3" d="M140.19,88.75c-.51,0-.96-.11-1.35-.32-.39-.21-.7-.53-.92-.96-.22-.43-.33-.96-.33-1.6v-4.77h1.22v4.67c0,.6.15,1.06.46,1.39.31.33.73.5,1.26.5.36,0,.68-.08.97-.24.29-.16.52-.39.69-.69s.25-.68.25-1.13v-4.5h1.22v7.55h-1.18v-1.83h.2c-.24.7-.57,1.2-1,1.49-.43.29-.93.44-1.49.44Z"/>
        <path class="cls-3" d="M146.41,79.82c-.23,0-.42-.08-.59-.24s-.25-.35-.25-.57.08-.41.25-.57c.17-.16.36-.24.59-.24s.43.08.6.24c.17.16.25.35.25.57s-.08.42-.25.57-.37.24-.6.24ZM145.8,88.65v-7.55h1.22v7.55h-1.22Z"/>
        <path class="cls-3" d="M150.37,78.46v10.19h-1.22v-10.19h1.22Z"/>
        <path class="cls-3" d="M155.35,88.81c-.63,0-1.19-.16-1.67-.48-.48-.32-.86-.78-1.13-1.36-.27-.58-.41-1.28-.41-2.07s.14-1.48.41-2.06.65-1.03,1.13-1.35,1.04-.48,1.67-.48c.46,0,.83.07,1.12.22.29.15.52.32.7.52s.31.38.41.55h.08v-3.83h1.22v10.19h-1.18v-1.16h-.11c-.1.17-.25.36-.42.57s-.41.38-.7.53c-.29.15-.66.22-1.11.22ZM155.53,87.72c.46,0,.85-.12,1.17-.36.32-.24.57-.57.73-1,.17-.43.25-.92.25-1.48s-.08-1.05-.25-1.47-.41-.75-.73-.98c-.32-.24-.71-.35-1.18-.35s-.86.12-1.18.36-.56.57-.73.99c-.17.42-.25.9-.25,1.45s.08,1.03.25,1.46.41.77.73,1.01.72.37,1.18.37Z"/>
        <path class="cls-3" d="M163.58,88.81c-.52,0-.98-.08-1.39-.24-.41-.16-.75-.39-1.01-.7s-.44-.69-.51-1.15l1.16-.22c.1.42.29.74.59.94.3.2.68.3,1.15.3.52,0,.94-.11,1.25-.34.31-.22.47-.5.47-.81,0-.26-.09-.48-.28-.66s-.47-.3-.83-.38l-1.25-.3c-.69-.16-1.2-.41-1.54-.75-.34-.34-.51-.78-.51-1.32,0-.43.12-.81.36-1.14.24-.33.57-.59.99-.78s.9-.28,1.44-.28.97.08,1.34.25.68.39.91.68.39.63.48,1.01l-1.11.23c-.08-.3-.25-.56-.5-.79-.25-.23-.62-.34-1.1-.34-.46,0-.83.1-1.12.31s-.44.47-.44.79c0,.28.1.51.31.68s.52.3.94.4l1.16.27c.69.16,1.2.42,1.53.75.33.34.5.77.5,1.3,0,.45-.13.84-.38,1.18s-.6.61-1.04.8c-.44.19-.96.29-1.54.29Z"/>
        <path class="cls-3" d="M175.25,81.1v1.04h-3.94v-1.04h3.94ZM172.48,79.25h1.22v7.47c0,.32.07.56.2.71.13.15.36.22.68.22.08,0,.18,0,.3-.02s.23-.03.33-.04l.2,1.03c-.13.04-.27.06-.43.08s-.31.03-.46.03c-.65,0-1.16-.17-1.51-.5s-.53-.8-.53-1.41v-7.57Z"/>
        <path class="cls-3" d="M178.03,84.15v4.5h-1.22v-10.19h1.22v4.46h-.25c.23-.69.56-1.19.99-1.49.43-.3.93-.45,1.51-.45.51,0,.96.11,1.35.32.39.21.7.53.92.96.22.43.33.96.33,1.61v4.77h-1.22v-4.68c0-.59-.15-1.05-.46-1.38-.31-.33-.72-.5-1.26-.5-.36,0-.69.08-.98.23s-.52.38-.69.69-.25.68-.25,1.13Z"/>
        <path class="cls-3" d="M188.18,88.81c-.73,0-1.36-.16-1.89-.49s-.93-.78-1.22-1.37-.42-1.26-.42-2.03.14-1.45.42-2.04.68-1.05,1.19-1.39,1.11-.5,1.79-.5c.43,0,.84.07,1.24.21.4.14.75.37,1.07.68.31.31.56.7.75,1.19s.27,1.06.27,1.73v.47h-5.93v-1.03h5.27l-.55.37c0-.5-.08-.94-.24-1.32s-.4-.68-.71-.9c-.31-.22-.7-.32-1.15-.32s-.84.11-1.17.33-.58.51-.75.87c-.17.36-.26.76-.26,1.19v.64c0,.55.09,1.02.28,1.42s.46.69.81.9.76.31,1.22.31c.31,0,.59-.05.84-.14s.46-.23.64-.4.31-.4.4-.66l1.18.26c-.11.4-.31.75-.59,1.05s-.63.54-1.06.71c-.42.17-.89.26-1.42.26Z"/>
        <path class="cls-3" d="M200.49,81.1v1.04h-4.37v-1.04h4.37ZM197.58,88.65v-8.63c0-.42.1-.77.29-1.06s.45-.5.78-.65.67-.22,1.04-.22c.26,0,.48.02.66.05s.31.07.39.1l-.27,1.04c-.06-.02-.14-.04-.26-.06-.11-.02-.24-.03-.39-.03-.36,0-.63.09-.79.27-.16.18-.24.45-.24.8v8.37h-1.22Z"/>
        <path class="cls-3" d="M204.68,88.75c-.51,0-.96-.11-1.35-.32-.39-.21-.7-.53-.92-.96-.22-.43-.33-.96-.33-1.6v-4.77h1.22v4.67c0,.6.15,1.06.46,1.39.31.33.73.5,1.26.5.36,0,.68-.08.97-.24.29-.16.52-.39.69-.69s.25-.68.25-1.13v-4.5h1.22v7.55h-1.18v-1.83h.2c-.24.7-.57,1.2-1,1.49-.43.29-.93.44-1.49.44Z"/>
        <path class="cls-3" d="M213.33,81.1v1.04h-3.94v-1.04h3.94ZM210.56,79.25h1.22v7.47c0,.32.07.56.2.71.13.15.36.22.68.22.08,0,.18,0,.3-.02s.23-.03.33-.04l.2,1.03c-.13.04-.27.06-.43.08s-.31.03-.46.03c-.65,0-1.16-.17-1.51-.5s-.53-.8-.53-1.41v-7.57Z"/>
        <path class="cls-3" d="M217.5,88.75c-.51,0-.96-.11-1.35-.32-.39-.21-.7-.53-.92-.96-.22-.43-.33-.96-.33-1.6v-4.77h1.22v4.67c0,.6.15,1.06.46,1.39.31.33.73.5,1.26.5.36,0,.68-.08.97-.24.29-.16.52-.39.69-.69s.25-.68.25-1.13v-4.5h1.22v7.55h-1.18v-1.83h.2c-.24.7-.57,1.2-1,1.49-.43.29-.93.44-1.49.44Z"/>
        <path class="cls-3" d="M223.1,88.65v-7.55h1.17v1.16h.07c.14-.38.38-.69.73-.92.35-.23.75-.35,1.2-.35.1,0,.2,0,.32,0,.12,0,.21,0,.27.01v1.22s-.12-.02-.27-.04c-.14-.02-.3-.03-.46-.03-.34,0-.65.07-.93.22-.28.15-.49.35-.65.62-.16.26-.24.58-.24.94v4.71h-1.22Z"/>
        <path class="cls-3" d="M231.22,88.81c-.73,0-1.36-.16-1.89-.49s-.93-.78-1.22-1.37-.42-1.26-.42-2.03.14-1.45.42-2.04c.28-.59.68-1.05,1.19-1.39.51-.33,1.11-.5,1.79-.5.43,0,.84.07,1.24.21.4.14.75.37,1.07.68.31.31.56.7.75,1.19s.27,1.06.27,1.73v.47h-5.93v-1.03h5.27l-.55.37c0-.5-.08-.94-.24-1.32-.16-.38-.4-.68-.71-.9-.31-.22-.7-.32-1.15-.32s-.84.11-1.17.33c-.33.22-.58.51-.75.87-.17.36-.26.76-.26,1.19v.64c0,.55.09,1.02.28,1.42.19.39.46.69.81.9.35.21.76.31,1.22.31.31,0,.59-.05.84-.14.25-.09.46-.23.64-.4s.31-.4.4-.66l1.18.26c-.11.4-.31.75-.59,1.05s-.63.54-1.06.71c-.42.17-.89.26-1.42.26Z"/>
      </g>
    </g>
  </g>
</svg>